<svg id="Сгруппировать_8" data-name="Сгруппировать 8" xmlns="http://www.w3.org/2000/svg" width="2033" height="1080" viewBox="0 0 2033 1080">
  <rect id="Прямоугольник_3" data-name="Прямоугольник 3" width="2033" height="1080" fill="#357b70"/>
  <path id="Контур_14" data-name="Контур 14" d="M-376.959,87.322c-3.609-3.815-7.27-7.068-10.2-10.883C-403.1,55.68-397.281,23.781-374.771,8.352c13.958-9.567,29.747-11.83,46.2-10.9a71.634,71.634,0,0,1,23.949,5.356c26.93,11.344,38.723,38.557,28.589,66.009A90.365,90.365,0,0,1-290.823,94.1c-.855,1.063-1.713,2.123-2.7,3.341a13.6,13.6,0,0,0,1.632,1.454c33.148,21.047,26.188,61.509,3.418,80.412a68.286,68.286,0,0,1-35.891,15.2c-16.958,2.132-33.457.42-48.988-7.314-22-10.954-34.244-32.677-31.456-56.757,1.816-15.682,10.433-27.785,21.862-38.1C-381,90.589-378.945,88.98-376.959,87.322Zm43.254,77.185a32.373,32.373,0,0,0,20.684-8.367c11.7-10.587,11.015-26.367-1.513-35.8a14.089,14.089,0,0,0-2.055-1.464c-11.289-5.629-22.579-11.26-33.935-16.75a3.251,3.251,0,0,0-2.933.8c-4.029,4.685-8.4,9.193-11.678,14.378a29.651,29.651,0,0,0-3.644,23.439C-365.288,155.071-352.316,164.525-333.706,164.507Zm27.223-112.342c.123-8.408-3.761-16.168-12.929-20.5a35.336,35.336,0,0,0-28.854-.961c-14.544,5.706-18.23,22.92-7.43,34.208a33.377,33.377,0,0,0,8.377,6.631c8.574,4.467,17.365,8.526,26.16,12.552.785.359,2.649-.34,3.272-1.132A50.549,50.549,0,0,0-306.483,52.165Z" transform="translate(724.141 674.875)" fill="#fff"/>
  <path id="Контур_15" data-name="Контур 15" d="M-376.959,87.322c-3.609-3.815-7.27-7.068-10.2-10.883C-403.1,55.68-397.281,23.781-374.771,8.352c13.958-9.567,29.747-11.83,46.2-10.9a71.634,71.634,0,0,1,23.949,5.356c26.93,11.344,38.723,38.557,28.589,66.009A90.365,90.365,0,0,1-290.823,94.1c-.855,1.063-1.713,2.123-2.7,3.341a13.6,13.6,0,0,0,1.632,1.454c33.148,21.047,26.188,61.509,3.418,80.412a68.286,68.286,0,0,1-35.891,15.2c-16.958,2.132-33.457.42-48.988-7.314-22-10.954-34.244-32.677-31.456-56.757,1.816-15.682,10.433-27.785,21.862-38.1C-381,90.589-378.945,88.98-376.959,87.322Zm43.254,77.185a32.373,32.373,0,0,0,20.684-8.367c11.7-10.587,11.015-26.367-1.513-35.8a14.089,14.089,0,0,0-2.055-1.464c-11.289-5.629-22.579-11.26-33.935-16.75a3.251,3.251,0,0,0-2.933.8c-4.029,4.685-8.4,9.193-11.678,14.378a29.651,29.651,0,0,0-3.644,23.439C-365.288,155.071-352.316,164.525-333.706,164.507Zm27.223-112.342c.123-8.408-3.761-16.168-12.929-20.5a35.336,35.336,0,0,0-28.854-.961c-14.544,5.706-18.23,22.92-7.43,34.208a33.377,33.377,0,0,0,8.377,6.631c8.574,4.467,17.365,8.526,26.16,12.552.785.359,2.649-.34,3.272-1.132A50.549,50.549,0,0,0-306.483,52.165Z" transform="translate(1353.637 674.875)" fill="#fff"/>
  <path id="Контур_16" data-name="Контур 16" d="M-376.959,87.322c-3.609-3.815-7.27-7.068-10.2-10.883C-403.1,55.68-397.281,23.781-374.771,8.352c13.958-9.567,29.747-11.83,46.2-10.9a71.634,71.634,0,0,1,23.949,5.356c26.93,11.344,38.723,38.557,28.589,66.009A90.365,90.365,0,0,1-290.823,94.1c-.855,1.063-1.713,2.123-2.7,3.341a13.6,13.6,0,0,0,1.632,1.454c33.148,21.047,26.188,61.509,3.418,80.412a68.286,68.286,0,0,1-35.891,15.2c-16.958,2.132-33.457.42-48.988-7.314-22-10.954-34.244-32.677-31.456-56.757,1.816-15.682,10.433-27.785,21.862-38.1C-381,90.589-378.945,88.98-376.959,87.322Zm43.254,77.185a32.373,32.373,0,0,0,20.684-8.367c11.7-10.587,11.015-26.367-1.513-35.8a14.089,14.089,0,0,0-2.055-1.464c-11.289-5.629-22.579-11.26-33.935-16.75a3.251,3.251,0,0,0-2.933.8c-4.029,4.685-8.4,9.193-11.678,14.378a29.651,29.651,0,0,0-3.644,23.439C-365.288,155.071-352.316,164.525-333.706,164.507Zm27.223-112.342c.123-8.408-3.761-16.168-12.929-20.5a35.336,35.336,0,0,0-28.854-.961c-14.544,5.706-18.23,22.92-7.43,34.208a33.377,33.377,0,0,0,8.377,6.631c8.574,4.467,17.365,8.526,26.16,12.552.785.359,2.649-.34,3.272-1.132A50.549,50.549,0,0,0-306.483,52.165Z" transform="translate(1983.242 674.875)" fill="#fff"/>
  <rect id="Прямоугольник_1_копия_2" data-name="Прямоугольник 1 копия 2" width="388" height="27" rx="13.5" transform="translate(503.945 757.738)" fill="#b1e3db"/>
  <rect id="Прямоугольник_1_копия_2-2" data-name="Прямоугольник 1 копия 2" width="388" height="27" rx="13.5" transform="translate(1140.945 757.738)" fill="#b1e3db"/>
  <g id="Сгруппировать_1" data-name="Сгруппировать 1" transform="translate(605.127 -383.02)">
    <path id="Контур_1" data-name="Контур 1" d="M42.552,920.722V838.5H31.073c-85.2,0-170.4-.181-255.592.177-14.037.062-24.843-4.414-34.628-14.325-29.656-30.041-26.921-24.228-26.946-65.582-.021-35.735.156-71.471-.087-107.2-.083-12.309,3.973-22.3,12.951-30.776,32.477-30.662,23.052-27.907,68.84-27.914q153.355-.036,306.71,0c17.694,0,22.632,4.928,22.657,22.535q.026,18.156,0,36.311c-.024,18.267-4.858,23.2-22.965,23.208q-95.739.037-191.478.01H-202.508v121.7c9.31-9.272,18-17.094,25.686-25.8,9.362-10.6,20.613-14.286,34.569-14.21q103.968.567,207.94.031c12.4-.052,21.98,3.908,30.895,12.541,32.366,31.359,28.219,26.581,28.372,67.477.135,36.02-.163,72.043.132,108.063.1,11.778-3.911,21.334-12.274,29.309-32.5,30.971-23.874,28.4-68.66,28.4q-152.923,0-305.843,0c-19.787,0-24.4-4.65-24.405-24.509,0-12.1-.031-24.208.007-36.312.049-15.2,5.656-20.883,20.907-20.89q148.16-.052,296.317-.021Z" transform="translate(0 0.058)" fill="#fff"/>
    <path id="Контур_2" data-name="Контур 2" d="M325.294,921.335H79.741c0,10.764,0,21.327,0,31.89,0,10.376.2,20.758-.094,31.127-.347,12.118-6.288,17.937-18.416,18.1-14.439.2-28.882.125-43.325.035C3.37,1002.4-2.369,996.553-2.376,981.76q-.057-104.187-.017-208.374c0-40.062.194-80.125-.111-120.184-.1-12.968,4.324-23.243,13.516-32.342,31.644-31.325,25.36-27.883,67.921-27.914,89.54-.066,179.076.1,268.615-.153,13.006-.038,23.285,3.928,32.387,13.3,30.586,31.474,28.24,22.226,28.24,68.431q.005,152.606,0,305.211c0,17.878-4.806,22.74-22.438,22.774q-18.629.036-37.259,0c-17.316-.049-22.545-5.358-22.577-22.924s0-35.163-.049-52.742C325.845,925.173,325.523,923.507,325.294,921.335ZM80.341,878.7c10.154-9.886,19.19-18.159,27.608-27.022,8.949-9.422,19.526-13.294,32.473-13.235,58.583.264,117.165-.007,175.744.271,7.325.031,9.97-1.5,9.907-9.432q-.557-72.128,0-144.26c.059-7.842-2.46-9.5-9.859-9.477-75.607.26-151.214.16-226.821.16h-9.05Z" transform="translate(700.712 0)" fill="#fff"/>
    <path id="Контур_3" data-name="Контур 3" d="M184.832,756.806V665.39c0-17-.045-34,.014-51,.059-16.042,5.413-21.466,21.143-21.508,13.863-.038,27.726-.125,41.586.031,12.891.146,19.124,6.305,19.127,19.235q.094,185.867,0,371.73c-.007,12.44-6.048,18.333-18.832,18.517-14.727.208-29.458.18-44.185.014-13.159-.149-18.784-5.889-18.812-19.339q-.141-66.564-.042-133.131v-10.8H-61.717c-.16,3.519-.441,6.881-.441,10.244q-.047,65.268-.035,130.536c-.017,17.6-5.032,22.511-22.767,22.535-13.284.017-26.567.1-39.851-.035-13.089-.132-19.443-6.149-19.45-18.915q-.1-185.435,0-370.866c.007-13.391,6.4-19.641,19.631-19.738,13.572-.1,27.143-.052,40.718-.021,16.181.031,21.685,5.472,21.706,21.952q.1,84.72.028,169.439V797.15c10.587-10.226,19.63-18.139,27.678-26.952,9.067-9.928,19.686-13.665,33.063-13.568,58.333.413,116.669.177,175,.177Z" transform="translate(350.433 0.062)" fill="#fff"/>
  </g>
  <rect id="Прямоугольник_3-2" data-name="Прямоугольник 3" width="237" height="43" transform="translate(889.945 373.738)" fill="#fff"/>
  <rect id="Прямоугольник_5" data-name="Прямоугольник 5" width="248" height="23" transform="translate(892.945 455.738)" fill="#fff"/>
  <g id="Сгруппировать_3" data-name="Сгруппировать 3" transform="translate(-1886.055 611.432)">
    <g id="Сгруппировать_2" data-name="Сгруппировать 2" transform="translate(2779 -370)">
      <rect id="Прямоугольник_1" data-name="Прямоугольник 1" width="247.743" height="196.305" rx="13" fill="#317a70"/>
      <path id="Контур_17" data-name="Контур 17" d="M29.715,15.328,78.56-6.744,184.687,4.81c6.582,0,21.324,15.238,21.324,21.82l7.477,125.214c0,6.582-5.266,11.686-5.266,11.686l-195.916.025C5.724,163.555,2.6,143.6,2.6,143.6L14.949,26.63C14.949,20.048,23.133,15.328,29.715,15.328Z" transform="translate(14.71 32.776)" fill="#fff"/>
      <path id="Контур_4" data-name="Контур 4" d="M455.421,502.369c-6.849,18.147,6.2,30.272,13.754,43.892,3.03,5.467,4.286,8.186-2.01,11.335-3.488,1.744-7.239,5.078-7.3,8.778-.23,13.55-12.038,12.138-19.015,17.891-3.315,2.734-5.729-1.893-7.037-4.012-25.121-40.722-27.61-83.006-5.634-125.4A122.282,122.282,0,0,1,559.473,391c53.079,9.871,93.294,51.874,100.379,106.071,3.92,30-2.793,58-19.215,83.643-3.213,5.018-5.745,5.61-10.266,1.919-2.751-2.246-6.243-3.586-9.419-5.3-1.32-.715-3.754-1.218-3.86-2.05-1.269-9.936-6.8-16.745-15.044-21.806-.294-.181-.241-1.706.155-2.114,6.549-6.722,7.181-17.18,14.625-23.263,2.925-2.387,3.419-5.482,3.46-8.834.055-4.526.458-9.1-.077-13.565-1.152-9.587,2.3-19.2-3.083-28.9-18.306-32.987-42.28-57.1-83.14-55.361-31.128,1.326-53.814,16.826-69.141,43.826C458.261,476.862,450.241,487.793,455.421,502.369Z" transform="translate(-412.941 -388.772)" fill="#317a70"/>
      <path id="Контур_5" data-name="Контур 5" d="M565.64,438.272c22.794,15.77,18.64,57.539-1.514,78.051-13.022,13.258-28.73,20.192-46.856,22.426H506.427c-27.972-3.639-50.1-16.29-59.864-43.764-9.613-27.061-4.771-50.394,21.413-62.551,1.452-.317,2.91-.605,4.354-.954C504.157,423.817,535.534,422.3,565.64,438.272Zm-94.169-2.242c-1.723,3.413-5.44,4.446-8.133,6.7-22.958,19.258-18.1,62.121,8.736,76.078.228.426.458.852.686,1.278l.419-1.1-1.267.041c-.091-1.1.136-2.353-.315-3.279q-17.935-36.917-.4-73.987c.886-1.882,2.233-3.732.238-5.729.3.434.594.875.916,1.292.03.036.256-.079.392-.125Q472.107,436.617,471.471,436.03Zm17.57,17.28c-5.61.5-9.6,3.579-9.637,9.977-.034,5.979,3.828,9.617,9.509,9.766,6.138.16,10.167-3.453,10.16-9.92C499.065,457.185,495.6,453.948,489.041,453.31Zm20.97,14c-3.4.32-5.531,2.118-5.572,5.6a5.237,5.237,0,0,0,5.555,5.619c3.209.017,5.514-1.933,5.544-5.57C515.569,469.3,513.336,467.779,510.011,467.315Z" transform="translate(-387.439 -356.001)" fill="#317a70"/>
      <path id="Контур_9" data-name="Контур 9" d="M468.929,514.057c-26.831-13.959-31.692-56.822-8.734-76.08,2.693-2.257,6.409-3.29,8.133-6.7l-.04.011c2,1.993.652,3.843-.234,5.725Q450.6,474.1,468.454,511c.451.926.224,2.18.315,3.279Z" transform="translate(-384.296 -351.244)" fill="#fefefe"/>
      <path id="Контур_10" data-name="Контур 10" d="M471.472,440.437c6.556.637,10.024,3.875,10.032,9.822.008,6.468-4.022,10.081-10.16,9.92-5.681-.149-9.543-3.786-9.509-9.766C461.87,444.016,465.862,440.939,471.472,440.437Z" transform="translate(-369.87 -343.128)" fill="#fefefe"/>
      <path id="Контур_11" data-name="Контур 11" d="M480.683,447.864c3.324.464,5.557,1.982,5.527,5.651-.03,3.637-2.334,5.587-5.544,5.57a5.237,5.237,0,0,1-5.555-5.619C475.153,449.982,477.28,448.185,480.683,447.864Z" transform="translate(-358.111 -336.55)" fill="#fefefe"/>
      <path id="Контур_12" data-name="Контур 12" d="M457.645,431.273q.636.585,1.273,1.175c-.136.045-.362.16-.392.125-.322-.417-.615-.858-.918-1.29Z" transform="translate(-373.613 -351.244)" fill="#fefefe"/>
      <path id="Контур_13" data-name="Контур 13" d="M457.861,475.394l1.267-.041-.419,1.1q-.342-.639-.688-1.277Z" transform="translate(-373.388 -312.362)" fill="#fefefe"/>
    </g>
  </g>
</svg>
